<?xml version="1.0" encoding="UTF-8" standalone="no" ?>
<!DOCTYPE svg PUBLIC "-//W3C//DTD SVG 1.1//EN" "http://www.w3.org/Graphics/SVG/1.1/DTD/svg11.dtd">
<svg xmlns="http://www.w3.org/2000/svg" xmlns:xlink="http://www.w3.org/1999/xlink" version="1.1" width="1080" height="1080" viewBox="0 0 1080 1080" xml:space="preserve">
<desc>Created with Fabric.js 4.2.0</desc>
<defs>
</defs>
<rect x="0" y="0" width="100%" height="100%" fill="transparent"></rect>
<g transform="matrix(1 0 0 1 540 540)" id="fca56054-d5db-45a2-9f53-c29a0a2f7e66"  >
<rect style="stroke: none; stroke-width: 1; stroke-dasharray: none; stroke-linecap: butt; stroke-dashoffset: 0; stroke-linejoin: miter; stroke-miterlimit: 4; fill: rgb(255,255,255); fill-rule: nonzero; opacity: 1;" vector-effect="non-scaling-stroke"  x="-540" y="-540" rx="0" ry="0" width="1080" height="1080" />
</g>
<g transform="matrix(1 0 0 1 540 540)" id="fb0c2c3e-3f39-4354-88b7-056eae41bc2b"  >
</g>
<g transform="matrix(1 0 0 1 540 535.48)" style="" id="c65eb465-ef23-4947-ac99-2d0fdb528d20"  >
		<rect opacity="0" fill="rgb(0,0,0)" x="-432" y="-40.68" width="864" height="81.36"></rect>
		<text xml:space="preserve" font-family="Dancing Script" font-size="72" font-style="normal" font-weight="700" style="stroke: none; stroke-width: 1; stroke-dasharray: none; stroke-linecap: butt; stroke-dashoffset: 0; stroke-linejoin: miter; stroke-miterlimit: 4; fill: rgb(255,242,60); fill-rule: nonzero; opacity: 1; white-space: pre;" ><tspan x="-304.78" y="22.62" >D</tspan><tspan x="-251.64" y="22.62" >o</tspan><tspan x="-220.18" y="22.62" >c</tspan><tspan x="-191.52" y="22.62" >u</tspan><tspan x="-155.09" y="22.62" >m</tspan><tspan x="-102.89" y="22.62" >e</tspan><tspan x="-73.66" y="22.62" >n</tspan><tspan x="-34.92" y="22.62" >t</tspan><tspan x="-9.5" y="22.62" style="white-space: pre; "> </tspan><tspan x="13.9" y="22.62" >C</tspan><tspan x="56.52" y="22.62" >o</tspan><tspan x="87.98" y="22.62" >n</tspan><tspan x="126.72" y="22.62" >v</tspan><tspan x="160.92" y="22.62" >e</tspan><tspan x="190.15" y="22.62" >r</tspan><tspan x="220.97" y="22.62" >t</tspan><tspan x="246.38" y="22.62" >o</tspan><tspan x="278.64" y="22.62" >r</tspan></text>
</g>
</svg>